/* XPM */
static char *_275f33c0e1844f390e9762e3e01715dtQgSxdbHg3oPk2ui[] = {
/* columns rows colors chars-per-pixel */
"32 32 7 1 ",
"  c #595101",
". c #4A6A00",
"X c #360357",
"o c #AF0000",
"O c #090AE9",
"+ c #BC0382",
"@ c #15E990",
/* pixels */
"................................",
".OOOOOOOOOOOOOOOOOOOOOOOOOOOOOO.",
".O++++++++++++++++++++++++++++O.",
".O+                          +O.",
".O+                          +O.",
".O+                          +O.",
".O+                          +O.",
".O+                          +O.",
".O+                          +O.",
".O+    @@@            @@@    +O.",
".O+   @@XX            XX@@   +O.",
".O+   @XXXXX@      @XXXXX@   +O.",
".O+   @XXooo@      @oooXX@   +O.",
".O+   @@Xooo@      @oooX@@   +O.",
".O+    @Xoo@@      @@ooX@    +O.",
".O+    @@@@@        @@@@@    +O.",
".O+      @@          @@      +O.",
".O+                          +O.",
".O+        XXX    XXX        +O.",
".O+        X@@X  X@@X        +O.",
".O+        X@@XXXX@@X        +O.",
".O+         X@@XX@@X         +O.",
".O+         XXXXXXXX         +O.",
".O+                          +O.",
".O+     @@            @@     +O.",
".O+      @@          @@      +O.",
".O+       @@@@@@@@@@@@       +O.",
".O+                          +O.",
".O+                          +O.",
".O++++++++++++++++++++++++++++O.",
".OOOOOOOOOOOOOOOOOOOOOOOOOOOOOO.",
"................................"
};
