/* XPM */
static char *_e41e0dbca454cfda4bf67acb05a8deairWAFb59OoZxuxjz[] = {
/* columns rows colors chars-per-pixel */
"32 32 8 1 ",
"  c black",
". c #571803",
"X c #106A2C",
"o c #58476E",
"O c #A02727",
"+ c #ACAA01",
"@ c #1D3AEB",
"# c #6414CD",
/* pixels */
"OOOOOOOOOOOOOOOOOOOOOOOOOOOOOOOO",
"O@@@@@@@@@@@@@@@@@@@@@@@@@@@@@@O",
"O@XXXXXXXXXXXXXXXXXXXXXXXXXXXX@O",
"O@XooooooooooooooooooooooooooX@O",
"O@XooooooooooooooooooooooooooX@O",
"O@XooooooooooooooooooooooooooX@O",
"O@XooooooooooooooooooooooooooX@O",
"O@XooooooooooooooooooooooooooX@O",
"O@XooooooooooooooooooooooooooX@O",
"O@Xooooo  oooooooooooo  oooooX@O",
"O@Xooooo++ oooooooooo ++oooooX@O",
"O@Xooooo+. oooooooooo .+oooooX@O",
"O@Xooooo+  oooooooooo  +oooooX@O",
"O@Xooooo+oooooooooooooo+oooooX@O",
"O@Xooooo++oooooooooooo++oooooX@O",
"O@Xooooo+oooooooooooooo+oooooX@O",
"O@Xoooooooooooo+oooooooooooooX@O",
"O@Xooooooooooo+#+ooooooooooooX@O",
"O@Xoooooooooo+###+oooooooooooX@O",
"O@Xooooooooooo+#+ooooooooooooX@O",
"O@Xoooooooooooo+oooooooooooooX@O",
"O@XooooooooooooooooooooooooooX@O",
"O@Xooooo+oooooooooooooo+oooooX@O",
"O@Xooooo+oooooooooooooo+oooooX@O",
"O@Xoooo++oooooooooooooo++ooooX@O",
"O@Xooooo++++oooooooo++++oooooX@O",
"O@Xoooooooo++++oo++++ooooooooX@O",
"O@Xooooooooooo++++oooooooooooX@O",
"O@XooooooooooooooooooooooooooX@O",
"O@XXXXXXXXXXXXXXXXXXXXXXXXXXXX@O",
"O@@@@@@@@@@@@@@@@@@@@@@@@@@@@@@O",
"OOOOOOOOOOOOOOOOOOOOOOOOOOOOOOOO"
};
