/* XPM */
static char *d42506e5d78b45eab9f149c3aa90b98dX4GAnZZBAEwM2kNk[] = {
/* columns rows colors chars-per-pixel */
"32 32 3 1 ",
"  c black",
". c #594D05",
"X c #09534B",
/* pixels */
"                                ",
" XXXXXXXXXXXXXXXXXXXXXXXXXXXXXX ",
" XXXXXXXXXXXXXXXXXXXXXXXXXXXXXX ",
" XXXXXXXXXXXXXXXXXXXXXXXXXXXXXX ",
" XXXXXXXXXXXXXXXXXXXXXXXXXXXXXX ",
" XXXXXXXXXXXXXXXXXXXXXXXXXXXXXX ",
"      XXXXXX      X     XXXXXXX ",
" XX XXX     XX XXXXX XXXXX  XXX ",
" XX XXX ... XX XXXXX XXXXX   XX ",
" XX XXX ... XX XXXXX XXXXX . XX ",
" XX XXX ... XX XXXXX XXXX ..  X ",
" XX XXX ... XX XXXXX XXXX     X ",
" XX XXX     XX XXXXX XXXX XXX   ",
" XXXXXXXXXXXXXXXXXXX XXX  XXXX  ",
" XXXXXXXXXXXXXXXXXXXXXXXXXXXXXX ",
" XXXXXXXXXXXXXXXXXXXXXXXXXXXXXX ",
" XXXXXXXXXXXXXXXXXXXXXXXXXXXXXX ",
" XXXXXX          XXXXXXXXXXXXXX ",
" XXXXXX ........  XXXXXXXXXXXXX ",
" XXXXX ... .... . XXXXXXXXXXXXX ",
" XXXX ............ XXXXXXXXXXXX ",
" XXXX ............  XXXXXXXXXXX ",
" XXXX ............. XXXXXXXXXXX ",
" XXXX ...  ...... . XXXXXXXXXXX ",
" XXXX  ...  ....  .. XXXXXXXXXX ",
" XXXXX ....      ... XXXXXXXXXX ",
" XXXXX   .........  XXXXXXXXXXX ",
" XXXXXXX   ....   XXXXXXXXXXXXX ",
" XXXXXXXXXX    XXXXXXXXXXXXXXXX ",
" XXXXXXXXXXXXXXXXXXXXXXXXXXXXXX ",
" XXXXXXXXXXXXXXXXXXXXXXXXXXXXXX ",
"                                "
};
