/* XPM */
static char *eaa505cef0bb4525906eb70e1e4effa7cNK7RWEL1tA8IQke[] = {
/* columns rows colors chars-per-pixel */
"32 32 107 2 ",
"   c #1E1D36",
".  c #1E1C39",
"X  c #211C36",
"o  c #2D1E36",
"O  c #211D39",
"+  c #301F39",
"@  c #232137",
"#  c #3F2A37",
"$  c #3E263B",
"%  c #452437",
"&  c #482236",
"*  c #452539",
"=  c #482339",
"-  c #41293B",
";  c #48293B",
":  c #45303A",
">  c #383443",
",  c #353C42",
"<  c #383F41",
"1  c #3F3E4D",
"2  c #4F3943",
"3  c #403E4E",
"4  c #503944",
"5  c #503A48",
"6  c #403F50",
"7  c #2E4646",
"8  c #2D4847",
"9  c #2D454A",
"0  c #2E4849",
"q  c #314445",
"w  c #304847",
"e  c #314449",
"r  c #3E424A",
"t  c #3E504C",
"y  c #414F4E",
"u  c #524146",
"i  c #56424E",
"p  c #424053",
"a  c #4D465C",
"s  c #594350",
"d  c #50485A",
"f  c #5A545E",
"g  c #5F5A5A",
"h  c #644A5D",
"j  c #605059",
"k  c #635B5A",
"l  c #63605E",
"z  c #565563",
"x  c #5B5763",
"c  c #575F67",
"v  c #5A5E65",
"b  c #5B5F6A",
"n  c #625B61",
"m  c #60596A",
"M  c #7C5F71",
"N  c #546066",
"B  c #596464",
"V  c #557174",
"C  c #696564",
"Z  c #6D6269",
"A  c #6E6B6B",
"S  c #736B76",
"D  c #6F7078",
"F  c #767676",
"G  c #7A7374",
"H  c #737976",
"J  c #76767A",
"K  c #7B757B",
"L  c #74787B",
"P  c #7A787B",
"I  c #83777F",
"U  c #707881",
"Y  c #7A7A80",
"T  c #767D89",
"R  c #7C7B8B",
"E  c #837D84",
"W  c #8D7C8C",
"Q  c #7E9096",
"!  c #8A828B",
"~  c #828B92",
"^  c #928693",
"/  c #938694",
"(  c #9A8793",
")  c #9A8496",
"_  c #918B92",
"`  c #938896",
"'  c #968897",
"]  c #978897",
"[  c #988C97",
"{  c #97899A",
"}  c #99889A",
"|  c #8E939B",
" . c #8D949B",
".. c #889BA1",
"X. c #9291A0",
"o. c #9499A7",
"O. c #94ADB7",
"+. c #98ADB4",
"@. c #95ACB8",
"#. c #96AEBD",
"$. c #9EADBD",
"%. c #8EB2BE",
"&. c #92B4B6",
"*. c #94B1BA",
"=. c #93B1BE",
"-. c #94B1BF",
";. c #99B0BD",
/* pixels */
"F * F F F F { -.F F F F } -.F F F % F F F F ^ T F F F F F * F F ",
"F 7 F F F F k ' F F F F k { F F F 7 F F F F k D F F F F F 7 F F ",
"F % F F F k k ' F F F F k ) F F F = F F F k k M F F F F F 7 F F ",
"* O %     e O . % X X * O X * X = O *     e o . % $   * 0 . * X ",
"F F F { -.F F k F } =.F F F } F H F F [ ;.G F C C K % H F F F % ",
"F F F k { F k F F k { F F F k F F F F k ' F k E F G 9 F F F F 7 ",
"F F F k { F F F F k { k F F k F F F F k ' F F F F G % F F F F 7 ",
"7 . . X O % . . %   . q X .     w   .   X % o . % 9 O % e . * . ",
"F ' *.F F F ' #.F F F F ' &.F F F ` *.G F F ! R H F F F K * H F ",
"F k { F F F k ' F F F F k { F F F k { F F F k D F F F F F % F F ",
"F k { F F F k ' F F F F k { F F F k { F F F k S F F F F F 7 F F ",
"C 2 E F C C 2 E F F C C 4 E A C C 4 E F C C u b E F C C C o ! C ",
"h 3 a 3 3 c a a h 3 3 v a a h a h 3 a 1 6 N d a x h   V h a v h ",
"F k F / @.F F F F ^ @.F F F F F F k F ^ O.F F F F P * F F F F F ",
"F F F k { F F F F k { F F F F F F F F k ' F F F F G 9 F F F F F ",
"F F k * J F F F k = F F F G k k H G k = J K F A k j @ ) F k k k ",
"F = J F F F } -.F F F F _ +.F F F - Y F F F F - L F F F F $ F F ",
"F 7 J F F F k { F F F F k | F F F < P F F F F , F F F F F 7 F F ",
"F - J F F k k } F F F F k } F F F # P F F G F - F F F F F q F F ",
"4 O h > > y + 1 i 3 3 4 o p s 3 4 O h r > y 4   h s > 4 t O h 3 ",
"! ! ! E ~ ! ! I ! E Q ! ! ! E f ! ! ! E a  .! ! A ! o ..! ! ! o ",
"F F F G } F F _ F G ) F F F G n F F F F h F F Z F F * F F F F * ",
"F F F k } F F F F k ' F F F l B F F F C N F F F F F * F F F F 7 ",
"F F k * J F J k k * Y L g k : z L L k 5 1 ^ F k k k O ' g k k O ",
"} F F { } } F H } } } } K U X.} } K A o.} } } X *.} } } ' O -.} ",
"F F { F F F F { F F F F F } F F F F W F F F F * F F F F F * F F ",
"F k } F F F k } F F F F k } F F F k ! F F F F % F F F F F 7 F F ",
"F k ' F F F k } F F F F k ( k F F g W F F F F q F F F F F % F F ",
"% X   O O 7 .   & X O q X   ; o % X   o O 7 %   8 * O q &   7 % ",
"F k F } %.F F F F { $.F F F F F F k F ! m F F F F F * F F F F F ",
"F F F k } F F F F k ' F F F F F F F F C N F F F F F 7 F F F F F ",
"F F k % F F F F k * F J F F k k F F k 4 3 / F k k k O } F k k k "
};
